<!--?xml version="1.0" encoding="utf-8"?-->
<!-- Generator: Adobe Illustrator 15.1.0, SVG Export Plug-In . SVG Version: 6.00 Build 0)  -->

<svg version="1.1" id="_x32_" xmlns="http://www.w3.org/2000/svg" xmlns:xlink="http://www.w3.org/1999/xlink" x="0px" y="0px" width="512px" height="512px" viewBox="0 0 512 512" style="width: 16px; height: 16px; opacity: 1;" xml:space="preserve">
<style type="text/css">

	.st0{fill:#4B4B4B;}

</style>
<g>
	<path class="st0" d="M266.147,258.174h-30.391v61.188h30.391c19.234,0,34.906-13.719,34.906-30.594
		C301.053,271.909,285.381,258.174,266.147,258.174z" style="fill: rgb(75, 75, 75);"></path>
	<path class="st0" d="M464.959,271.596c-28.844-114.938-140.484-158.172-150.234-168.688l27.438-99.938
		c0,0-34.281-11.078-82.375,9.563C198.663,38.784,164.6,5.315,164.6,5.315l30.188,99.156
		c-9.469,10.766-128.203,59.031-149.719,172.609c-18.516,97.703,39.516,237.14,212.938,234.89
		C431.475,509.689,489.178,368.096,464.959,271.596z M266.147,353.346h-30.391v44.547c0,8.578-6.953,15.515-15.516,15.515h-7.781
		c-8.563,0-15.5-6.937-15.5-15.515V239.674c0-8.547,6.938-15.5,15.5-15.5h53.688c40.625,0,73.703,28.969,73.703,64.594
		C339.85,324.377,306.772,353.346,266.147,353.346z" style="fill: rgb(75, 75, 75);"></path>
</g>
</svg>
